<svg height="472pt" viewBox="4 4 472 472" width="472pt" xmlns="http://www.w3.org/2000/svg"><path d="m208 376c-.039062 26.492188-21.507812 47.960938-48 48l-16 48h192l-16-48c-26.492188-.039062-47.960938-21.507812-48-48 0-26.507812 21.492188-48 48-48h-160c26.507812 0 48 21.492188 48 48zm0 0" fill="#bcbec0"/><path d="m456 8h-432c-8.835938 0-16 7.164062-16 16v256h464v-256c0-8.835938-7.164062-16-16-16zm-296 152h-80c-8.835938 0-16-7.164062-16-16 0 8.835938 7.164062 16 16 16zm128 48c0 8.835938-7.164062 16-16 16h-64c-8.835938 0-16-7.164062-16-16v-128c0-8.835938 7.164062-16 16-16h64c8.835938 0 16 7.164062 16 16zm128-48h-80c-8.835938 0-16-7.164062-16-16 0 8.835938 7.164062 16 16 16zm0 0" fill="#00d7df"/><path d="m8 312c0 8.835938 7.164062 16 16 16h432c8.835938 0 16-7.164062 16-16v-32h-464zm0 0" fill="#bcbec0"/><path d="m208 64h64c8.835938 0 16 7.164062 16 16v128c0 8.835938-7.164062 16-16 16h-64c-8.835938 0-16-7.164062-16-16v-128c0-8.835938 7.164062-16 16-16zm0 0" fill="#00d7df"/><g fill="#231f20"><path d="m456 0h-432c-13.253906 0-24 10.746094-24 24v288c0 13.253906 10.746094 24 24 24h136c22.082031.027344 39.972656 17.917969 40 40-.039062 22.074219-17.925781 39.960938-40 40-.105469 0-.183594.054688-.289062.054688-.613282.050781-1.214844.175781-1.800782.371093-.414062.078125-.824218.1875-1.222656.335938-.859375.542969-1.6875 1.136719-2.480469 1.78125-.300781.378906-.566406.785156-.800781 1.210937-.316406.449219-.585938.9375-.796875 1.445313-.042969.097656-.121094.167969-.160156.273437l-16 48c-.8125 2.433594-.40625 5.105469 1.089843 7.191406 1.492188 2.082032 3.894532 3.324219 6.460938 3.335938h192c2.570312 0 4.988281-1.234375 6.492188-3.320312 1.503906-2.085938 1.914062-4.769532 1.101562-7.207032l-16-48c0-.105468-.121094-.175781-.160156-.273437-.222656-.519531-.503906-1.011719-.839844-1.464844-.234375-.417969-.5-.816406-.800781-1.191406-.351563-.328125-.730469-.621094-1.136719-.878907-.417969-.34375-.867188-.644531-1.34375-.894531-.402344-.152343-.816406-.269531-1.242188-.355469-.578124-.1875-1.175781-.308593-1.78125-.359374-.105468 0-.183593-.054688-.289062-.054688-22.074219-.039062-39.960938-17.925781-40-40 .027344-22.082031 17.917969-39.972656 40-40h136c13.253906 0 24-10.746094 24-24v-288c0-13.253906-10.746094-24-24-24zm-192 376c.03125 28.640625 21.648438 52.65625 50.128906 55.6875l10.773438 32.3125h-169.804688l10.773438-32.3125c28.480468-3.039062 50.089844-27.046875 50.128906-55.6875.003906-15.066406-6.085938-29.496094-16.886719-40h81.773438c-10.800781 10.503906-16.890625 24.933594-16.886719 40zm200-64c0 4.417969-3.582031 8-8 8h-432c-4.417969 0-8-3.582031-8-8v-24h448zm-448-40v-248c0-4.417969 3.582031-8 8-8h432c4.417969 0 8 3.582031 8 8v248zm0 0"/><path d="m160 56c-4.417969 0-8 3.582031-8 8v88h-72c-4.417969 0-8-3.582031-8-8v-80c0-4.417969-3.582031-8-8-8s-8 3.582031-8 8v80c0 13.253906 10.746094 24 24 24h72v56c0 4.417969 3.582031 8 8 8s8-3.582031 8-8v-160c0-4.417969-3.582031-8-8-8zm0 0"/><path d="m416 56c-4.417969 0-8 3.582031-8 8v88h-72c-4.417969 0-8-3.582031-8-8v-80c0-4.417969-3.582031-8-8-8s-8 3.582031-8 8v80c0 13.253906 10.746094 24 24 24h72v56c0 4.417969 3.582031 8 8 8s8-3.582031 8-8v-160c0-4.417969-3.582031-8-8-8zm0 0"/><path d="m272 56h-64c-13.253906 0-24 10.746094-24 24v128c0 13.253906 10.746094 24 24 24h64c13.253906 0 24-10.746094 24-24v-128c0-13.253906-10.746094-24-24-24zm8 152c0 4.417969-3.582031 8-8 8h-64c-4.417969 0-8-3.582031-8-8v-128c0-4.417969 3.582031-8 8-8h64c4.417969 0 8 3.582031 8 8zm0 0"/></g></svg>