<?xml version="1.0" encoding="iso-8859-1"?>
<!-- Generator: Adobe Illustrator 19.0.0, SVG Export Plug-In . SVG Version: 6.00 Build 0)  -->
<svg version="1.1" id="Capa_1" xmlns="http://www.w3.org/2000/svg" xmlns:xlink="http://www.w3.org/1999/xlink" x="0px" y="0px"
	 viewBox="0 0 512 512" style="enable-background:new 0 0 512 512;" xml:space="preserve">
<path style="fill:#FFBD86;" d="M350.351,422.199C332.95,457.599,296.649,481,256.15,481c-37.8,0-72.299-20.4-90.601-52.5
	l16.201-38.401l2.399-0.298L196.15,343.6l16.199,7.8c13.5,6.301,28.801,9.6,43.801,9.6c15,0,30.3-3.3,43.801-9.6l16.199-7.8
	l12.001,46.201l2.399,0.298L350.351,422.199z"/>
<path style="fill:#F6A96C;" d="M350.351,422.199C332.95,457.599,296.649,481,256.15,481V361c15,0,30.3-3.3,43.801-9.6l16.199-7.8
	l12.001,46.201l2.399,0.298L350.351,422.199z"/>
<path style="fill:#384949;" d="M256.15,0C153.851,0,69.551,79.501,61.751,180l16.8,30H91.15v-15
	c0-43.455,16.99-84.78,47.839-116.362l0.245-0.25l0.25-0.245C171.259,47.097,212.691,30,256.15,30c90.981,0,165,74.019,165,165v15
	h10.8l18.6-30C442.749,79.501,358.449,0,256.15,0z"/>
<path style="fill:#293939;" d="M256.15,0v30c90.981,0,165,74.019,165,165v15h10.8l18.6-30C442.749,79.501,358.449,0,256.15,0z"/>
<path style="fill:#0095FF;" d="M452.15,181h-91.6v120h22.284l4.627,13.5L423.85,301h28.301C452.15,301,452.45,185.799,452.15,181z"
	/>
<g>
	<path style="fill:#00ABE9;" d="M481.15,496.399c-0.901-24.3-10.8-48.699-27.299-67.299c-15.601-16.8-38.401-27.9-64.801-31.501
		l-58.5-7.5l-3.9,11.4c-10.5,29.702-38.7,49.501-70.5,49.501c-31.5,0-60-19.799-70.499-49.501l-3.9-11.4l-58.801,7.5
		c-26.1,3.602-48.9,14.702-64.2,31.501c-16.5,17.999-26.1,42.4-27.599,66.999L30.249,512H481.75L481.15,496.399z"/>
	<path style="fill:#00ABE9;" d="M61.751,180c-0.3,4.799-0.601,9.901-0.601,15v106h90V180H61.751z"/>
</g>
<path style="fill:#FED2A4;" d="M391.15,210v46c0,52.5-30.901,100.8-78.6,122.401C295.15,386.8,275.651,391,256.15,391
	s-39-4.2-56.4-12.599C152.051,356.8,121.15,308.5,121.15,256v-46l46.5-30h82.2l36.301-36.301l36.3,36.301h27.599L391.15,210z"/>
<path style="fill:#FFBD86;" d="M312.55,378.401C295.15,386.8,275.651,391,256.15,391V173.699l30-30L322.451,180h27.599l41.1,30v46
	C391.15,308.5,360.249,356.8,312.55,378.401z"/>
<path style="fill:#0095FF;" d="M481.751,512H256.15v-61c31.8,0,60-19.799,70.499-49.501l3.9-11.4l58.5,7.5
	c26.4,3.602,49.2,14.702,64.801,31.501c16.5,18.6,26.398,42.999,27.299,67.299L481.751,512z"/>
<path style="fill:#384949;" d="M256.15,60c-35.7,0-69.6,14.099-95.7,39.6c-25.201,25.8-39.3,59.7-39.3,95.4v15h141.301
	l23.699-23.699L309.849,210h81.301v-15C391.15,120.601,330.55,60,256.15,60z"/>
<path style="fill:#293939;" d="M391.15,195v15h-81.301l-23.699-23.699L262.451,210h-6.301V60C330.55,60,391.15,120.601,391.15,195z"
	/>
<path style="fill:#3E5959;" d="M424.45,301c-6,17.401-22.8,30-42.299,30h-111v-30H424.45z"/>
<g>
</g>
<g>
</g>
<g>
</g>
<g>
</g>
<g>
</g>
<g>
</g>
<g>
</g>
<g>
</g>
<g>
</g>
<g>
</g>
<g>
</g>
<g>
</g>
<g>
</g>
<g>
</g>
<g>
</g>
</svg>
